<mxfile host="app.diagrams.net" agent="Mozilla/5.0 (Macintosh; Intel Mac OS X 10_15_7) AppleWebKit/605.1.15 (KHTML, like Gecko) Version/18.5 Safari/605.1.15" version="27.1.0">
  <diagram name="Página-1" id="e52Z-5f_xUJUDV-lDuJt">
    <mxGraphModel dx="985" dy="826" grid="1" gridSize="10" guides="1" tooltips="1" connect="1" arrows="1" fold="1" page="1" pageScale="1" pageWidth="827" pageHeight="1169" background="#ffffff" math="0" shadow="0">
      <root>
        <mxCell id="0" />
        <mxCell id="1" parent="0" />
        <mxCell id="8vaacTnNT_abh9jzLumH-5" value="Persona (abstracta)" style="swimlane;fontStyle=1;align=center;verticalAlign=top;childLayout=stackLayout;horizontal=1;startSize=26;horizontalStack=0;resizeParent=1;resizeParentMax=0;resizeLast=0;collapsible=1;marginBottom=0;whiteSpace=wrap;html=1;" parent="1" vertex="1">
          <mxGeometry x="199" y="40" width="160" height="170" as="geometry" />
        </mxCell>
        <mxCell id="8vaacTnNT_abh9jzLumH-6" value="- nombre: str&lt;div&gt;- dni : int&lt;/div&gt;&lt;div&gt;- nacimiento: int&lt;/div&gt;&lt;div&gt;- sexo: int&lt;/div&gt;&lt;div&gt;- telefono: int&lt;/div&gt;&lt;div&gt;- tipo_sangre: int&lt;/div&gt;&lt;div&gt;+ centro_salud: str&lt;/div&gt;" style="text;strokeColor=none;fillColor=none;align=left;verticalAlign=top;spacingLeft=4;spacingRight=4;overflow=hidden;rotatable=0;points=[[0,0.5],[1,0.5]];portConstraint=eastwest;whiteSpace=wrap;html=1;" parent="8vaacTnNT_abh9jzLumH-5" vertex="1">
          <mxGeometry y="26" width="160" height="104" as="geometry" />
        </mxCell>
        <mxCell id="8vaacTnNT_abh9jzLumH-7" value="" style="line;strokeWidth=1;fillColor=none;align=left;verticalAlign=middle;spacingTop=-1;spacingLeft=3;spacingRight=3;rotatable=0;labelPosition=right;points=[];portConstraint=eastwest;strokeColor=inherit;" parent="8vaacTnNT_abh9jzLumH-5" vertex="1">
          <mxGeometry y="130" width="160" height="8" as="geometry" />
        </mxCell>
        <mxCell id="8vaacTnNT_abh9jzLumH-8" value="+ info(): print" style="text;strokeColor=none;fillColor=none;align=left;verticalAlign=top;spacingLeft=4;spacingRight=4;overflow=hidden;rotatable=0;points=[[0,0.5],[1,0.5]];portConstraint=eastwest;whiteSpace=wrap;html=1;" parent="8vaacTnNT_abh9jzLumH-5" vertex="1">
          <mxGeometry y="138" width="160" height="32" as="geometry" />
        </mxCell>
        <mxCell id="8vaacTnNT_abh9jzLumH-14" value="Paciente (abstracta)" style="swimlane;fontStyle=0;childLayout=stackLayout;horizontal=1;startSize=26;fillColor=none;horizontalStack=0;resizeParent=1;resizeParentMax=0;resizeLast=0;collapsible=1;marginBottom=0;whiteSpace=wrap;html=1;" parent="1" vertex="1">
          <mxGeometry x="199" y="310" width="160" height="140" as="geometry" />
        </mxCell>
        <mxCell id="8vaacTnNT_abh9jzLumH-15" value="- nombre: str&lt;div&gt;- dni : int&lt;/div&gt;&lt;div&gt;- nacimiento: int&lt;/div&gt;&lt;div&gt;- sexo: int&lt;/div&gt;&lt;div&gt;- telefono: int&lt;/div&gt;&lt;div&gt;- tipo_sangre: int&lt;/div&gt;&lt;div&gt;+ centro_salud: str&lt;/div&gt;" style="text;strokeColor=none;fillColor=none;align=left;verticalAlign=top;spacingLeft=4;spacingRight=4;overflow=hidden;rotatable=0;points=[[0,0.5],[1,0.5]];portConstraint=eastwest;whiteSpace=wrap;html=1;" parent="8vaacTnNT_abh9jzLumH-14" vertex="1">
          <mxGeometry y="26" width="160" height="114" as="geometry" />
        </mxCell>
        <mxCell id="8vaacTnNT_abh9jzLumH-23" value="Donante" style="swimlane;fontStyle=1;align=center;verticalAlign=top;childLayout=stackLayout;horizontal=1;startSize=26;horizontalStack=0;resizeParent=1;resizeParentMax=0;resizeLast=0;collapsible=1;marginBottom=0;whiteSpace=wrap;html=1;" parent="1" vertex="1">
          <mxGeometry x="79" y="560" width="160" height="178" as="geometry" />
        </mxCell>
        <mxCell id="8vaacTnNT_abh9jzLumH-24" value="+ fecha_muerte: int&lt;div&gt;+ hora_muerte: int&lt;/div&gt;&lt;div&gt;+ fecha_ablacion: int&lt;/div&gt;&lt;div&gt;+ hora_ablacion: int&lt;/div&gt;&lt;div&gt;+ lista_organos: [ ]&lt;/div&gt;" style="text;strokeColor=none;fillColor=none;align=left;verticalAlign=top;spacingLeft=4;spacingRight=4;overflow=hidden;rotatable=0;points=[[0,0.5],[1,0.5]];portConstraint=eastwest;whiteSpace=wrap;html=1;" parent="8vaacTnNT_abh9jzLumH-23" vertex="1">
          <mxGeometry y="26" width="160" height="84" as="geometry" />
        </mxCell>
        <mxCell id="8vaacTnNT_abh9jzLumH-25" value="" style="line;strokeWidth=1;fillColor=none;align=left;verticalAlign=middle;spacingTop=-1;spacingLeft=3;spacingRight=3;rotatable=0;labelPosition=right;points=[];portConstraint=eastwest;strokeColor=inherit;" parent="8vaacTnNT_abh9jzLumH-23" vertex="1">
          <mxGeometry y="110" width="160" height="8" as="geometry" />
        </mxCell>
        <mxCell id="8vaacTnNT_abh9jzLumH-26" value="+ tiene_organos(): bool&lt;div&gt;+ organo_donado(): None&lt;/div&gt;&lt;div&gt;+ __strs__(): print&lt;/div&gt;" style="text;strokeColor=none;fillColor=none;align=left;verticalAlign=top;spacingLeft=4;spacingRight=4;overflow=hidden;rotatable=0;points=[[0,0.5],[1,0.5]];portConstraint=eastwest;whiteSpace=wrap;html=1;" parent="8vaacTnNT_abh9jzLumH-23" vertex="1">
          <mxGeometry y="118" width="160" height="60" as="geometry" />
        </mxCell>
        <mxCell id="8vaacTnNT_abh9jzLumH-31" value="Receptor" style="swimlane;fontStyle=1;align=center;verticalAlign=top;childLayout=stackLayout;horizontal=1;startSize=26;horizontalStack=0;resizeParent=1;resizeParentMax=0;resizeLast=0;collapsible=1;marginBottom=0;whiteSpace=wrap;html=1;" parent="1" vertex="1">
          <mxGeometry x="312" y="560" width="160" height="170" as="geometry" />
        </mxCell>
        <mxCell id="8vaacTnNT_abh9jzLumH-32" value="+ organo_necesitado:&amp;nbsp;&lt;div&gt;+ fecha_listado: [ ]&lt;/div&gt;&lt;div&gt;+ prioridad: int&lt;/div&gt;&lt;div&gt;+ patologia: str&lt;/div&gt;&lt;div&gt;+ estados: str&lt;/div&gt;" style="text;strokeColor=none;fillColor=none;align=left;verticalAlign=top;spacingLeft=4;spacingRight=4;overflow=hidden;rotatable=0;points=[[0,0.5],[1,0.5]];portConstraint=eastwest;whiteSpace=wrap;html=1;" parent="8vaacTnNT_abh9jzLumH-31" vertex="1">
          <mxGeometry y="26" width="160" height="84" as="geometry" />
        </mxCell>
        <mxCell id="8vaacTnNT_abh9jzLumH-33" value="" style="line;strokeWidth=1;fillColor=none;align=left;verticalAlign=middle;spacingTop=-1;spacingLeft=3;spacingRight=3;rotatable=0;labelPosition=right;points=[];portConstraint=eastwest;strokeColor=inherit;" parent="8vaacTnNT_abh9jzLumH-31" vertex="1">
          <mxGeometry y="110" width="160" height="8" as="geometry" />
        </mxCell>
        <mxCell id="8vaacTnNT_abh9jzLumH-34" value="+ match(): bool&lt;div&gt;+ cambio_priotidad(): int and str&lt;/div&gt;" style="text;strokeColor=none;fillColor=none;align=left;verticalAlign=top;spacingLeft=4;spacingRight=4;overflow=hidden;rotatable=0;points=[[0,0.5],[1,0.5]];portConstraint=eastwest;whiteSpace=wrap;html=1;" parent="8vaacTnNT_abh9jzLumH-31" vertex="1">
          <mxGeometry y="118" width="160" height="52" as="geometry" />
        </mxCell>
        <mxCell id="8vaacTnNT_abh9jzLumH-39" value="Centro_de_salud" style="swimlane;fontStyle=1;align=center;verticalAlign=top;childLayout=stackLayout;horizontal=1;startSize=26;horizontalStack=0;resizeParent=1;resizeParentMax=0;resizeLast=0;collapsible=1;marginBottom=0;whiteSpace=wrap;html=1;" parent="1" vertex="1">
          <mxGeometry x="509" y="510" width="200" height="220" as="geometry" />
        </mxCell>
        <mxCell id="8vaacTnNT_abh9jzLumH-40" value="+ nombre: str&lt;div&gt;+ direccion: str&lt;/div&gt;&lt;div&gt;+ partido: str&lt;/div&gt;&lt;div&gt;+ provincia: str&lt;/div&gt;&lt;div&gt;+ telefono: int&lt;/div&gt;&lt;div&gt;+ cirujano: [ ]&lt;/div&gt;&lt;div&gt;+ vehículo: [ ]&lt;/div&gt;" style="text;strokeColor=none;fillColor=none;align=left;verticalAlign=top;spacingLeft=4;spacingRight=4;overflow=hidden;rotatable=0;points=[[0,0.5],[1,0.5]];portConstraint=eastwest;whiteSpace=wrap;html=1;" parent="8vaacTnNT_abh9jzLumH-39" vertex="1">
          <mxGeometry y="26" width="200" height="104" as="geometry" />
        </mxCell>
        <mxCell id="8vaacTnNT_abh9jzLumH-41" value="" style="line;strokeWidth=1;fillColor=none;align=left;verticalAlign=middle;spacingTop=-1;spacingLeft=3;spacingRight=3;rotatable=0;labelPosition=right;points=[];portConstraint=eastwest;strokeColor=inherit;" parent="8vaacTnNT_abh9jzLumH-39" vertex="1">
          <mxGeometry y="130" width="200" height="8" as="geometry" />
        </mxCell>
        <mxCell id="8vaacTnNT_abh9jzLumH-42" value="+ agregar_cirujano(): None&lt;div&gt;+ agregar_vehiculo(): None&lt;/div&gt;&lt;div&gt;+ asignar_cirujano(): str / None&lt;/div&gt;&lt;div&gt;+ asignar_vehiculo(): str / None&lt;/div&gt;&lt;div&gt;+ __str__(): None&lt;/div&gt;" style="text;strokeColor=none;fillColor=none;align=left;verticalAlign=top;spacingLeft=4;spacingRight=4;overflow=hidden;rotatable=0;points=[[0,0.5],[1,0.5]];portConstraint=eastwest;whiteSpace=wrap;html=1;" parent="8vaacTnNT_abh9jzLumH-39" vertex="1">
          <mxGeometry y="138" width="200" height="82" as="geometry" />
        </mxCell>
        <mxCell id="8vaacTnNT_abh9jzLumH-43" value="Vehiculo" style="swimlane;fontStyle=1;align=center;verticalAlign=top;childLayout=stackLayout;horizontal=1;startSize=26;horizontalStack=0;resizeParent=1;resizeParentMax=0;resizeLast=0;collapsible=1;marginBottom=0;whiteSpace=wrap;html=1;" parent="1" vertex="1">
          <mxGeometry x="409" y="266" width="180" height="96" as="geometry" />
        </mxCell>
        <mxCell id="8vaacTnNT_abh9jzLumH-44" value="+ tipo: str&lt;div&gt;+ velocidad: int&lt;/div&gt;" style="text;strokeColor=none;fillColor=none;align=left;verticalAlign=top;spacingLeft=4;spacingRight=4;overflow=hidden;rotatable=0;points=[[0,0.5],[1,0.5]];portConstraint=eastwest;whiteSpace=wrap;html=1;" parent="8vaacTnNT_abh9jzLumH-43" vertex="1">
          <mxGeometry y="26" width="180" height="34" as="geometry" />
        </mxCell>
        <mxCell id="8vaacTnNT_abh9jzLumH-45" value="" style="line;strokeWidth=1;fillColor=none;align=left;verticalAlign=middle;spacingTop=-1;spacingLeft=3;spacingRight=3;rotatable=0;labelPosition=right;points=[];portConstraint=eastwest;strokeColor=inherit;" parent="8vaacTnNT_abh9jzLumH-43" vertex="1">
          <mxGeometry y="60" width="180" height="8" as="geometry" />
        </mxCell>
        <mxCell id="8vaacTnNT_abh9jzLumH-46" value="+ __str__(): print" style="text;strokeColor=none;fillColor=none;align=left;verticalAlign=top;spacingLeft=4;spacingRight=4;overflow=hidden;rotatable=0;points=[[0,0.5],[1,0.5]];portConstraint=eastwest;whiteSpace=wrap;html=1;" parent="8vaacTnNT_abh9jzLumH-43" vertex="1">
          <mxGeometry y="68" width="180" height="28" as="geometry" />
        </mxCell>
        <mxCell id="8vaacTnNT_abh9jzLumH-51" value="Cirujano" style="swimlane;fontStyle=1;align=center;verticalAlign=top;childLayout=stackLayout;horizontal=1;startSize=26;horizontalStack=0;resizeParent=1;resizeParentMax=0;resizeLast=0;collapsible=1;marginBottom=0;whiteSpace=wrap;html=1;" parent="1" vertex="1">
          <mxGeometry x="629" y="174" width="180" height="188" as="geometry" />
        </mxCell>
        <mxCell id="8vaacTnNT_abh9jzLumH-52" value="- nombre: str&lt;div&gt;- especialidades: str&lt;/div&gt;&lt;div&gt;+ disponible: bool&lt;/div&gt;" style="text;strokeColor=none;fillColor=none;align=left;verticalAlign=top;spacingLeft=4;spacingRight=4;overflow=hidden;rotatable=0;points=[[0,0.5],[1,0.5]];portConstraint=eastwest;whiteSpace=wrap;html=1;" parent="8vaacTnNT_abh9jzLumH-51" vertex="1">
          <mxGeometry y="26" width="180" height="54" as="geometry" />
        </mxCell>
        <mxCell id="8vaacTnNT_abh9jzLumH-53" value="" style="line;strokeWidth=1;fillColor=none;align=left;verticalAlign=middle;spacingTop=-1;spacingLeft=3;spacingRight=3;rotatable=0;labelPosition=right;points=[];portConstraint=eastwest;strokeColor=inherit;" parent="8vaacTnNT_abh9jzLumH-51" vertex="1">
          <mxGeometry y="80" width="180" height="8" as="geometry" />
        </mxCell>
        <mxCell id="8vaacTnNT_abh9jzLumH-54" value="+ disponible_para_operar(): str&lt;div&gt;+ tiene_especialidad_para(): str&lt;/div&gt;&lt;div&gt;+ es_general(): str&lt;/div&gt;&lt;div&gt;+ marcar_ocupado(): None&lt;/div&gt;&lt;div&gt;+ mascar_disponible(): None&lt;/div&gt;&lt;div&gt;+ __str__(): print&lt;/div&gt;" style="text;strokeColor=none;fillColor=none;align=left;verticalAlign=top;spacingLeft=4;spacingRight=4;overflow=hidden;rotatable=0;points=[[0,0.5],[1,0.5]];portConstraint=eastwest;whiteSpace=wrap;html=1;" parent="8vaacTnNT_abh9jzLumH-51" vertex="1">
          <mxGeometry y="88" width="180" height="100" as="geometry" />
        </mxCell>
        <mxCell id="8vaacTnNT_abh9jzLumH-55" value="Organos" style="swimlane;fontStyle=1;align=center;verticalAlign=top;childLayout=stackLayout;horizontal=1;startSize=26;horizontalStack=0;resizeParent=1;resizeParentMax=0;resizeLast=0;collapsible=1;marginBottom=0;whiteSpace=wrap;html=1;" parent="1" vertex="1">
          <mxGeometry x="19" y="880" width="180" height="168" as="geometry" />
        </mxCell>
        <mxCell id="8vaacTnNT_abh9jzLumH-56" value="+ tipo_organo: str&lt;div&gt;+ fecha_ablacion: int&lt;/div&gt;&lt;div&gt;+ hora_ablacion: int&lt;/div&gt;&lt;div&gt;+ disponible: bool&lt;/div&gt;" style="text;strokeColor=none;fillColor=none;align=left;verticalAlign=top;spacingLeft=4;spacingRight=4;overflow=hidden;rotatable=0;points=[[0,0.5],[1,0.5]];portConstraint=eastwest;whiteSpace=wrap;html=1;" parent="8vaacTnNT_abh9jzLumH-55" vertex="1">
          <mxGeometry y="26" width="180" height="64" as="geometry" />
        </mxCell>
        <mxCell id="8vaacTnNT_abh9jzLumH-57" value="" style="line;strokeWidth=1;fillColor=none;align=left;verticalAlign=middle;spacingTop=-1;spacingLeft=3;spacingRight=3;rotatable=0;labelPosition=right;points=[];portConstraint=eastwest;strokeColor=inherit;" parent="8vaacTnNT_abh9jzLumH-55" vertex="1">
          <mxGeometry y="90" width="180" height="8" as="geometry" />
        </mxCell>
        <mxCell id="8vaacTnNT_abh9jzLumH-58" value="+ marcar_donado(): None&lt;div&gt;+ esta_disponible(): None&lt;/div&gt;&lt;div&gt;+ __str__(): print&lt;/div&gt;&lt;div&gt;+ __eq__(): str and int&lt;/div&gt;" style="text;strokeColor=none;fillColor=none;align=left;verticalAlign=top;spacingLeft=4;spacingRight=4;overflow=hidden;rotatable=0;points=[[0,0.5],[1,0.5]];portConstraint=eastwest;whiteSpace=wrap;html=1;" parent="8vaacTnNT_abh9jzLumH-55" vertex="1">
          <mxGeometry y="98" width="180" height="70" as="geometry" />
        </mxCell>
        <mxCell id="8vaacTnNT_abh9jzLumH-72" value="" style="endArrow=block;dashed=1;endFill=0;endSize=12;html=1;rounded=0;exitX=0.5;exitY=0;exitDx=0;exitDy=0;entryX=0.5;entryY=1.103;entryDx=0;entryDy=0;entryPerimeter=0;" parent="1" source="8vaacTnNT_abh9jzLumH-14" target="8vaacTnNT_abh9jzLumH-8" edge="1">
          <mxGeometry width="160" relative="1" as="geometry">
            <mxPoint x="459" y="360" as="sourcePoint" />
            <mxPoint x="619" y="360" as="targetPoint" />
          </mxGeometry>
        </mxCell>
        <mxCell id="8vaacTnNT_abh9jzLumH-75" value="" style="endArrow=block;dashed=1;endFill=0;endSize=12;html=1;rounded=0;exitX=0.5;exitY=0;exitDx=0;exitDy=0;entryX=0.419;entryY=1.044;entryDx=0;entryDy=0;entryPerimeter=0;" parent="1" source="8vaacTnNT_abh9jzLumH-23" target="8vaacTnNT_abh9jzLumH-15" edge="1">
          <mxGeometry width="160" relative="1" as="geometry">
            <mxPoint x="149" y="440" as="sourcePoint" />
            <mxPoint x="309" y="440" as="targetPoint" />
          </mxGeometry>
        </mxCell>
        <mxCell id="8vaacTnNT_abh9jzLumH-76" value="" style="endArrow=block;dashed=1;endFill=0;endSize=12;html=1;rounded=0;exitX=0.5;exitY=0;exitDx=0;exitDy=0;" parent="1" source="8vaacTnNT_abh9jzLumH-31" edge="1">
          <mxGeometry width="160" relative="1" as="geometry">
            <mxPoint x="149" y="440" as="sourcePoint" />
            <mxPoint x="279" y="454" as="targetPoint" />
          </mxGeometry>
        </mxCell>
        <mxCell id="8vaacTnNT_abh9jzLumH-81" value="Incucai" style="swimlane;fontStyle=1;align=center;verticalAlign=top;childLayout=stackLayout;horizontal=1;startSize=26;horizontalStack=0;resizeParent=1;resizeParentMax=0;resizeLast=0;collapsible=1;marginBottom=0;whiteSpace=wrap;html=1;" parent="1" vertex="1">
          <mxGeometry x="289" y="880" width="190" height="190" as="geometry" />
        </mxCell>
        <mxCell id="8vaacTnNT_abh9jzLumH-82" value="+ lista_donante: [ ]&lt;div&gt;+ lista_receptores: [ ]&lt;/div&gt;&lt;div&gt;+ lista_centros_salud: [ ]&lt;/div&gt;" style="text;strokeColor=none;fillColor=none;align=left;verticalAlign=top;spacingLeft=4;spacingRight=4;overflow=hidden;rotatable=0;points=[[0,0.5],[1,0.5]];portConstraint=eastwest;whiteSpace=wrap;html=1;" parent="8vaacTnNT_abh9jzLumH-81" vertex="1">
          <mxGeometry y="26" width="190" height="54" as="geometry" />
        </mxCell>
        <mxCell id="8vaacTnNT_abh9jzLumH-83" value="" style="line;strokeWidth=1;fillColor=none;align=left;verticalAlign=middle;spacingTop=-1;spacingLeft=3;spacingRight=3;rotatable=0;labelPosition=right;points=[];portConstraint=eastwest;strokeColor=inherit;" parent="8vaacTnNT_abh9jzLumH-81" vertex="1">
          <mxGeometry y="80" width="190" height="8" as="geometry" />
        </mxCell>
        <mxCell id="8vaacTnNT_abh9jzLumH-84" value="+ agregar_donante(): None&lt;div&gt;+ agregar_receptor(): None&lt;br&gt;&lt;/div&gt;&lt;div&gt;+ agregar_centro_salud(): None&lt;br&gt;&lt;/div&gt;&lt;div&gt;+ buscar_match(): None&lt;/div&gt;&lt;div&gt;+ coordinar_transplante(): bool&lt;/div&gt;&lt;div&gt;+ __str__(): print&lt;/div&gt;" style="text;strokeColor=none;fillColor=none;align=left;verticalAlign=top;spacingLeft=4;spacingRight=4;overflow=hidden;rotatable=0;points=[[0,0.5],[1,0.5]];portConstraint=eastwest;whiteSpace=wrap;html=1;" parent="8vaacTnNT_abh9jzLumH-81" vertex="1">
          <mxGeometry y="88" width="190" height="102" as="geometry" />
        </mxCell>
        <mxCell id="8vaacTnNT_abh9jzLumH-88" value="" style="endArrow=diamondThin;endFill=0;endSize=24;html=1;rounded=0;exitX=0.447;exitY=1.059;exitDx=0;exitDy=0;exitPerimeter=0;entryX=0.5;entryY=0;entryDx=0;entryDy=0;" parent="1" source="8vaacTnNT_abh9jzLumH-34" target="8vaacTnNT_abh9jzLumH-81" edge="1">
          <mxGeometry width="160" relative="1" as="geometry">
            <mxPoint x="359" y="731.8720000000001" as="sourcePoint" />
            <mxPoint x="158.64999999999992" y="870" as="targetPoint" />
            <Array as="points">
              <mxPoint x="384" y="800" />
            </Array>
          </mxGeometry>
        </mxCell>
        <mxCell id="8vaacTnNT_abh9jzLumH-89" value="" style="endArrow=none;html=1;rounded=0;" parent="1" edge="1">
          <mxGeometry width="50" height="50" relative="1" as="geometry">
            <mxPoint x="169" y="800" as="sourcePoint" />
            <mxPoint x="169" y="738" as="targetPoint" />
          </mxGeometry>
        </mxCell>
        <mxCell id="8vaacTnNT_abh9jzLumH-90" value="" style="endArrow=none;html=1;rounded=0;entryX=0.485;entryY=1.033;entryDx=0;entryDy=0;entryPerimeter=0;" parent="1" target="8vaacTnNT_abh9jzLumH-42" edge="1">
          <mxGeometry width="50" height="50" relative="1" as="geometry">
            <mxPoint x="169" y="800" as="sourcePoint" />
            <mxPoint x="399" y="760" as="targetPoint" />
            <Array as="points">
              <mxPoint x="606" y="800" />
            </Array>
          </mxGeometry>
        </mxCell>
        <mxCell id="8vaacTnNT_abh9jzLumH-91" value="" style="endArrow=diamondThin;endFill=0;endSize=24;html=1;rounded=0;entryX=0.5;entryY=0;entryDx=0;entryDy=0;" parent="1" target="8vaacTnNT_abh9jzLumH-39" edge="1">
          <mxGeometry width="160" relative="1" as="geometry">
            <mxPoint x="489" y="364" as="sourcePoint" />
            <mxPoint x="569" y="550" as="targetPoint" />
            <Array as="points">
              <mxPoint x="489" y="440" />
              <mxPoint x="609" y="440" />
            </Array>
          </mxGeometry>
        </mxCell>
        <mxCell id="8vaacTnNT_abh9jzLumH-92" value="" style="endArrow=none;html=1;rounded=0;entryX=0.499;entryY=1.017;entryDx=0;entryDy=0;entryPerimeter=0;" parent="1" target="8vaacTnNT_abh9jzLumH-54" edge="1">
          <mxGeometry width="50" height="50" relative="1" as="geometry">
            <mxPoint x="609" y="440" as="sourcePoint" />
            <mxPoint x="529" y="440" as="targetPoint" />
            <Array as="points">
              <mxPoint x="719" y="440" />
            </Array>
          </mxGeometry>
        </mxCell>
        <mxCell id="8vaacTnNT_abh9jzLumH-96" value="" style="html=1;verticalAlign=bottom;endArrow=open;dashed=1;endSize=8;curved=0;rounded=0;exitX=-0.01;exitY=0.063;exitDx=0;exitDy=0;exitPerimeter=0;" parent="1" source="8vaacTnNT_abh9jzLumH-84" edge="1">
          <mxGeometry relative="1" as="geometry">
            <mxPoint x="279" y="974.8199999999999" as="sourcePoint" />
            <mxPoint x="199" y="974.8199999999999" as="targetPoint" />
          </mxGeometry>
        </mxCell>
        <mxCell id="8vaacTnNT_abh9jzLumH-98" value="" style="html=1;verticalAlign=bottom;endArrow=open;dashed=1;endSize=8;curved=0;rounded=0;entryX=0.611;entryY=0;entryDx=0;entryDy=0;entryPerimeter=0;" parent="1" target="8vaacTnNT_abh9jzLumH-55" edge="1">
          <mxGeometry relative="1" as="geometry">
            <mxPoint x="129" y="740" as="sourcePoint" />
            <mxPoint x="89" y="810" as="targetPoint" />
          </mxGeometry>
        </mxCell>
      </root>
    </mxGraphModel>
  </diagram>
</mxfile>
